<svg width="1389" height="305" viewBox="0 0 1389 305" fill="none" xmlns="http://www.w3.org/2000/svg">
<path d="M0.400002 28.8C30.2667 18.6667 61.2 13.6 93.2 13.6C125.2 13.6 151.733 20.4 172.8 34C193.867 47.6 204.4 68.4 204.4 96.4C204.4 124.4 194.533 148 174.8 167.2C155.067 186.133 131.333 195.6 103.6 195.6C83.3333 195.6 73.2 187.867 73.2 172.4C73.2 167.6 74.1333 162.533 76 157.2C83.2 159.067 89.7333 160 95.6 160C114 160 127.867 154.933 137.2 144.8C146.8 134.667 151.6 120.667 151.6 102.8C151.6 84.6666 146.533 71.2 136.4 62.4C126.267 53.6 112.133 49.2 94 49.2C84.6667 49.2 73.3333 50.8 60 54C57.8667 86.8 56.8 115.867 56.8 141.2C56.8 212.133 59.6 263.467 65.2 295.2C56.6667 298.4 47.6 300 38 300C28.4 300 20 296.933 12.8 290.8C5.86667 284.667 2.4 276.533 2.4 266.4C2.4 256.267 3.73333 238.667 6.4 213.6C9.06667 188.267 10.4 168 10.4 152.8C10.4 106.4 7.06667 65.0666 0.400002 28.8ZM387.803 111.6C380.603 142.267 377.003 173.067 377.003 204C377.003 234.667 380.47 265.067 387.403 295.2C377.803 298.4 367.936 300 357.803 300C347.67 300 340.603 297.067 336.603 291.2C332.603 285.067 330.603 276.4 330.603 265.2C330.603 253.733 332.336 238.133 335.803 218.4C316.87 258.933 298.603 284.533 281.003 295.2C273.003 300 264.736 302.4 256.203 302.4C235.936 302.4 220.203 294.933 209.003 280C197.803 264.8 192.203 246 192.203 223.6C192.203 189.467 201.67 159.6 220.603 134C239.536 108.133 264.07 95.2 294.203 95.2C324.603 95.2 355.803 100.667 387.803 111.6ZM335.403 135.6C321.27 131.333 309.27 129.2 299.403 129.2C279.403 129.2 264.47 133.6 254.603 142.4C245.536 164.8 241.003 187.6 241.003 210.8C241.003 223.067 242.87 235.467 246.603 248C250.603 260.533 256.603 266.8 264.603 266.8C273.936 266.8 285.936 253.067 300.603 225.6C315.27 198.133 326.87 168.133 335.403 135.6ZM427.372 4.79999C435.905 1.59998 444.705 -2.38419e-05 453.772 -2.38419e-05C462.839 -2.38419e-05 470.305 3.06664 476.172 9.19998C482.305 15.0666 485.372 23.2 485.372 33.6C485.372 43.7333 483.905 64.2667 480.972 95.2C478.305 125.867 476.972 150 476.972 167.6C476.972 211.067 480.039 253.6 486.172 295.2C477.639 298.4 468.572 300 458.972 300C438.439 300 428.172 290 428.172 270C428.172 260.4 429.639 241.6 432.572 213.6C435.505 185.333 436.972 162.667 436.972 145.6C436.972 88.8 433.772 41.8667 427.372 4.79999ZM531.994 101.2C540.527 98.8 549.06 97.6 557.594 97.6C566.394 97.6 573.86 100.267 579.994 105.6C586.127 110.933 589.194 117.867 589.194 126.4C589.194 134.667 587.727 149.2 584.794 170C582.127 190.533 580.794 206.533 580.794 218C580.794 247.867 583.594 273.6 589.194 295.2C580.927 298.4 571.994 300 562.394 300C552.794 300 545.194 297.867 539.594 293.6C533.994 289.067 531.194 282.667 531.194 274.4C531.194 265.867 532.794 252 535.994 232.8C539.194 213.6 540.794 197.733 540.794 185.2C540.794 151.867 537.86 123.867 531.994 101.2ZM537.194 10.8C546.527 6.53332 555.727 4.39999 564.794 4.39999C573.86 4.39999 580.527 6.79999 584.794 11.6C589.327 16.1333 591.594 22.9333 591.594 32C591.594 41.0667 588.527 49.0667 582.394 56C576.527 62.9333 568.794 66.4 559.194 66.4C539.46 66.4 529.594 56.1333 529.594 35.6C529.594 26.5333 532.127 18.2666 537.194 10.8ZM667.947 227.2C667.147 230.933 666.747 234 666.747 236.4C666.747 247.333 669.947 255.733 676.347 261.6C683.014 267.467 691.814 270.4 702.747 270.4C713.947 270.4 723.147 268.4 730.347 264.4C737.814 260.133 741.547 253.867 741.547 245.6C741.547 237.333 737.547 230.8 729.547 226C721.814 220.933 712.347 216.933 701.147 214C690.214 211.067 679.147 207.867 667.947 204.4C656.747 200.667 647.147 194.933 639.147 187.2C631.414 179.467 627.547 169.733 627.547 158C627.547 139.6 637.28 124.133 656.747 111.6C676.214 99.0667 696.614 92.8 717.947 92.8C741.414 92.8 759.28 97.6 771.547 107.2C778.747 112.8 782.347 120.267 782.347 129.6C782.347 138.667 778.747 146.133 771.547 152C764.614 157.6 756.08 160.4 745.947 160.4C743.814 160.4 741.147 160.133 737.947 159.6C738.747 156.133 739.147 153.067 739.147 150.4C739.147 142.667 736.214 136.8 730.347 132.8C724.48 128.8 716.48 126.8 706.347 126.8C696.48 126.8 687.414 128.8 679.147 132.8C675.947 137.067 674.347 142.533 674.347 149.2C674.347 155.867 678.214 161.333 685.947 165.6C693.68 169.6 703.014 173.2 713.947 176.4C725.147 179.333 736.347 182.8 747.547 186.8C758.747 190.533 768.214 196.533 775.947 204.8C783.68 212.8 787.547 222.933 787.547 235.2C787.547 255.2 777.547 271.867 757.547 285.2C737.814 298.267 717.414 304.8 696.347 304.8C675.28 304.8 657.814 301.067 643.947 293.6C630.347 285.867 623.547 274.267 623.547 258.8C623.547 249.2 627.014 241.467 633.947 235.6C641.147 229.467 649.814 226.4 659.947 226.4C662.08 226.4 664.747 226.667 667.947 227.2ZM829.978 38.8C838.511 34.5333 847.178 32.4 855.978 32.4C864.778 32.4 871.845 35.2 877.178 40.8C882.778 46.4 885.578 54.6667 885.578 65.6C885.578 76.5333 884.911 88.9333 883.578 102.8C903.578 102.8 922.645 100 940.778 94.4C943.978 99.7333 945.578 106 945.578 113.2C945.578 120.133 942.378 125.867 935.978 130.4C929.845 134.667 923.578 136.8 917.178 136.8C910.778 136.8 903.578 136 895.578 134.4C887.578 132.8 882.378 131.867 879.978 131.6C879.711 134 878.911 138.8 877.578 146C876.511 153.2 875.578 159.467 874.778 164.8C872.645 179.467 871.578 195.2 871.578 212C871.578 248.533 883.445 266.8 907.178 266.8C915.978 266.8 926.111 263.733 937.578 257.6C941.045 262.667 942.778 269.2 942.778 277.2C942.778 285.2 938.378 291.467 929.578 296C921.045 300.267 910.778 302.4 898.778 302.4C851.845 302.4 828.378 275.733 828.378 222.4C828.378 214.667 829.445 200.667 831.578 180.4C833.978 160.133 835.178 143.733 835.178 131.2C822.378 132 812.111 134.267 804.378 138C801.178 133.2 799.578 127.733 799.578 121.6C799.578 115.2 801.845 110 806.378 106C810.911 101.733 816.511 99.6 823.178 99.6C829.845 99.6 834.245 99.7333 836.378 100C836.645 97.8667 836.778 95.0667 836.778 91.6C836.778 71.6 834.511 54 829.978 38.8ZM1156.99 138.4L1152.99 226.4C1152.99 249.867 1156.86 273.6 1164.59 297.6C1156.32 300.8 1147.92 302.4 1139.39 302.4C1116.19 302.4 1104.59 290.133 1104.59 265.6C1104.59 247.467 1106.19 226.133 1109.39 201.6C1112.59 177.067 1114.19 162 1114.19 156.4C1114.19 142.533 1107.92 135.6 1095.39 135.6C1082.06 135.6 1067.26 148.133 1050.99 173.2C1034.72 198 1025.39 218.8 1022.99 235.6C1023.52 243.333 1026.19 263.2 1030.99 295.2C1022.72 298.4 1013.66 300 1003.79 300C983.257 300 972.991 290 972.991 270C972.991 260.4 974.457 241.6 977.391 213.6C980.324 185.333 981.791 162.667 981.791 145.6C981.791 88.8 978.591 41.8667 972.191 4.79999C980.724 1.59998 989.524 -2.38419e-05 998.591 -2.38419e-05C1007.66 -2.38419e-05 1015.12 3.06664 1020.99 9.19998C1027.12 15.0666 1030.19 23.2 1030.19 33.6C1030.19 44 1028.72 65.4667 1025.79 98C1023.12 130.533 1021.79 155.867 1021.79 174C1031.12 154.267 1044.72 136.267 1062.59 120C1080.72 103.467 1098.72 95.2 1116.59 95.2C1143.52 95.2 1156.99 109.6 1156.99 138.4ZM1388.19 111.6C1380.99 142.267 1377.39 173.067 1377.39 204C1377.39 234.667 1380.86 265.067 1387.79 295.2C1378.19 298.4 1368.33 300 1358.19 300C1348.06 300 1340.99 297.067 1336.99 291.2C1332.99 285.067 1330.99 276.4 1330.99 265.2C1330.99 253.733 1332.73 238.133 1336.19 218.4C1317.26 258.933 1298.99 284.533 1281.39 295.2C1273.39 300 1265.13 302.4 1256.59 302.4C1236.33 302.4 1220.59 294.933 1209.39 280C1198.19 264.8 1192.59 246 1192.59 223.6C1192.59 189.467 1202.06 159.6 1220.99 134C1239.93 108.133 1264.46 95.2 1294.59 95.2C1324.99 95.2 1356.19 100.667 1388.19 111.6ZM1335.79 135.6C1321.66 131.333 1309.66 129.2 1299.79 129.2C1279.79 129.2 1264.86 133.6 1254.99 142.4C1245.93 164.8 1241.39 187.6 1241.39 210.8C1241.39 223.067 1243.26 235.467 1246.99 248C1250.99 260.533 1256.99 266.8 1264.99 266.8C1274.33 266.8 1286.33 253.067 1300.99 225.6C1315.66 198.133 1327.26 168.133 1335.79 135.6Z" fill="white"/>
</svg>
